%
M48
M72
T01C0.0350
T02C0.0420
T03C0.1250
%
T01
X15933Y10501
X15933Y13141
X20333Y13201
X22333Y13201
X24333Y13201
X27333Y13201
X31533Y13181
X33933Y11341
X37293Y11341
X38853Y11201
X38853Y10201
X38853Y9201
X38853Y8201
X40693Y8201
X40693Y9201
X40693Y10201
X40693Y11201
X40693Y12201
X40693Y13201
X38853Y13201
X38853Y12201
X37933Y16141
X38473Y17821
X39473Y17821
X39473Y18821
X38473Y18821
X38473Y19821
X39473Y19821
X39473Y20821
X38473Y20821
X38473Y21821
X39473Y21821
X36773Y23021
X36853Y26221
X35853Y26221
X34853Y26221
X32853Y26221
X31853Y26221
X30853Y26221
X29853Y26221
X28853Y26221
X27853Y26221
X26853Y26221
X25853Y26221
X24253Y26221
X23253Y26221
X22253Y26221
X21253Y26221
X20253Y26221
X19253Y26221
X18253Y26221
X17253Y26221
X16253Y26221
X15253Y26221
X16413Y23921
X16413Y22921
X16413Y21921
X16413Y20921
X16413Y19921
X20333Y16201
X22333Y16201
X24333Y16201
X27333Y16151
X31533Y16901
X33373Y16141
X36773Y19301
X31813Y21821
X27853Y21821
X26973Y22601
X23913Y21261
X22913Y21261
X23413Y22011
X26973Y19601
X37853Y26221
X38853Y26221
X39853Y26221
X40853Y26221
X41853Y26221
X34833Y7221
X33833Y7221
X32833Y7221
X31833Y7221
X30833Y7221
X29833Y7221
X28833Y7221
X27833Y7221
X25853Y7221
X24853Y7221
X23853Y7221
X22853Y7221
X21853Y7221
X20853Y7221
X19853Y7221
X18853Y7221
T02
X10373Y9021
X10373Y11021
X10333Y15101
X10333Y17101
T03
X13353Y7221
X33853Y9221
X33853Y20221
X13853Y26221
X9913Y23421
M30
