%
M48
M72
T01C0.0350
T02C0.0420
T03C0.1250
%
T01
X1593Y1050
X1593Y1314
X2033Y1320
X2233Y1320
X2433Y1320
X2733Y1320
X3153Y1318
X3393Y1134
X3729Y1134
X3885Y1120
X3885Y1020
X3885Y0920
X3885Y0820
X4069Y0820
X4069Y0920
X4069Y1020
X4069Y1120
X4069Y1220
X4069Y1320
X3885Y1320
X3885Y1220
X3793Y1614
X3847Y1782
X3947Y1782
X3947Y1882
X3847Y1882
X3847Y1982
X3947Y1982
X3947Y2082
X3847Y2082
X3847Y2182
X3947Y2182
X3677Y2302
X3685Y2622
X3585Y2622
X3485Y2622
X3285Y2622
X3185Y2622
X3085Y2622
X2985Y2622
X2885Y2622
X2785Y2622
X2685Y2622
X2585Y2622
X2425Y2622
X2325Y2622
X2225Y2622
X2125Y2622
X2025Y2622
X1925Y2622
X1825Y2622
X1725Y2622
X1625Y2622
X1525Y2622
X1641Y2392
X1641Y2292
X1641Y2192
X1641Y2092
X1641Y1992
X2033Y1620
X2233Y1620
X2433Y1620
X2733Y1615
X3153Y1690
X3337Y1614
X3677Y1930
X3181Y2182
X2785Y2182
X2697Y2260
X2391Y2126
X2291Y2126
X2341Y2201
X2697Y1960
X3785Y2622
X3885Y2622
X3985Y2622
X4085Y2622
X4185Y2622
X3483Y0722
X3383Y0722
X3283Y0722
X3183Y0722
X3083Y0722
X2983Y0722
X2883Y0722
X2783Y0722
X2585Y0722
X2485Y0722
X2385Y0722
X2285Y0722
X2185Y0722
X2085Y0722
X1985Y0722
X1885Y0722
T02
X1037Y0902
X1037Y1102
X1033Y1510
X1033Y1710
T03
X1335Y0722
X3385Y0922
X3385Y2022
X1385Y2622
X0991Y2342
M30
