%
M48
M72
T01C0.0350
T02C0.0354
T03C0.0420
T04C0.0433
T05C0.1250
T06C0.1300
%
T01
X30708Y10040
X31708Y10040
X32708Y10040
X33708Y10040
X14708Y27540
X14708Y28540
X15708Y28540
X16708Y28540
X17708Y28540
X18708Y28540
X18708Y27540
X17708Y27540
X16708Y27540
X15708Y27540
X18708Y17040
X18708Y16040
X19708Y14540
X21708Y14540
X22708Y16540
X23708Y16540
X24708Y14540
X16708Y14540
X27208Y25040
X27208Y26040
X27208Y27040
X27208Y28040
X27208Y29040
T02
X16708Y12040
X17708Y12040
X15708Y12040
T03
X14708Y22540
X14708Y24540
X14708Y17040
X14708Y19040
T04
X24208Y21540
X22708Y23540
X19708Y21540
X18208Y23540
X18208Y19540
X22708Y19540
T05
X36708Y12540
X33708Y25540
X36708Y29040
X13208Y29540
X12708Y14540
T06
X27708Y10540
X36708Y10540
X36708Y21540
X27708Y21540
M30
