%
M48
M72
T01C0.0350
T02C0.0354
T03C0.0420
T04C0.0433
T05C0.1250
T06C0.1300
%
T01
X3070Y1004
X3170Y1004
X3270Y1004
X3370Y1004
X1470Y2754
X1470Y2854
X1570Y2854
X1670Y2854
X1770Y2854
X1870Y2854
X1870Y2754
X1770Y2754
X1670Y2754
X1570Y2754
X1870Y1704
X1870Y1604
X1970Y1454
X2170Y1454
X2270Y1654
X2370Y1654
X2470Y1454
X1670Y1454
X2720Y2504
X2720Y2604
X2720Y2704
X2720Y2804
X2720Y2904
T02
X1670Y1204
X1770Y1204
X1570Y1204
T03
X1470Y2254
X1470Y2454
X1470Y1704
X1470Y1904
T04
X2420Y2154
X2270Y2354
X1970Y2154
X1820Y2354
X1820Y1954
X2270Y1954
T05
X3670Y1254
X3370Y2554
X3670Y2904
X1320Y2954
X1270Y1454
T06
X2770Y1054
X3670Y1054
X3670Y2154
X2770Y2154
M30
