G75*
%MOIN*%
%OFA0B0*%
%FSLAX24Y24*%
%IPPOS*%
%LPD*%
%AMOC8*
5,1,8,0,0,1.08239X$1,22.5*
%
%ADD10C,0.0000*%
%ADD11C,0.0525*%
%ADD12C,0.0650*%
%ADD13R,0.1000X0.1000*%
%ADD14C,0.0531*%
%ADD15C,0.0240*%
%ADD16C,0.0160*%
%ADD17C,0.0100*%
D10*
X011708Y008540D02*
X011708Y031036D01*
X038578Y031036D01*
X038578Y008540D01*
X011708Y008540D01*
X012083Y014540D02*
X012085Y014590D01*
X012091Y014639D01*
X012101Y014688D01*
X012114Y014735D01*
X012132Y014782D01*
X012153Y014827D01*
X012177Y014870D01*
X012205Y014911D01*
X012236Y014950D01*
X012270Y014986D01*
X012307Y015020D01*
X012347Y015050D01*
X012388Y015077D01*
X012432Y015101D01*
X012477Y015121D01*
X012524Y015137D01*
X012572Y015150D01*
X012621Y015159D01*
X012671Y015164D01*
X012720Y015165D01*
X012770Y015162D01*
X012819Y015155D01*
X012868Y015144D01*
X012915Y015130D01*
X012961Y015111D01*
X013006Y015089D01*
X013049Y015064D01*
X013089Y015035D01*
X013127Y015003D01*
X013163Y014969D01*
X013196Y014931D01*
X013225Y014891D01*
X013251Y014849D01*
X013274Y014805D01*
X013293Y014759D01*
X013309Y014712D01*
X013321Y014663D01*
X013329Y014614D01*
X013333Y014565D01*
X013333Y014515D01*
X013329Y014466D01*
X013321Y014417D01*
X013309Y014368D01*
X013293Y014321D01*
X013274Y014275D01*
X013251Y014231D01*
X013225Y014189D01*
X013196Y014149D01*
X013163Y014111D01*
X013127Y014077D01*
X013089Y014045D01*
X013049Y014016D01*
X013006Y013991D01*
X012961Y013969D01*
X012915Y013950D01*
X012868Y013936D01*
X012819Y013925D01*
X012770Y013918D01*
X012720Y013915D01*
X012671Y013916D01*
X012621Y013921D01*
X012572Y013930D01*
X012524Y013943D01*
X012477Y013959D01*
X012432Y013979D01*
X012388Y014003D01*
X012347Y014030D01*
X012307Y014060D01*
X012270Y014094D01*
X012236Y014130D01*
X012205Y014169D01*
X012177Y014210D01*
X012153Y014253D01*
X012132Y014298D01*
X012114Y014345D01*
X012101Y014392D01*
X012091Y014441D01*
X012085Y014490D01*
X012083Y014540D01*
X027058Y010540D02*
X027060Y010590D01*
X027066Y010640D01*
X027076Y010690D01*
X027089Y010738D01*
X027106Y010786D01*
X027127Y010832D01*
X027151Y010876D01*
X027179Y010918D01*
X027210Y010958D01*
X027244Y010995D01*
X027281Y011030D01*
X027320Y011061D01*
X027361Y011090D01*
X027405Y011115D01*
X027451Y011137D01*
X027498Y011155D01*
X027546Y011169D01*
X027595Y011180D01*
X027645Y011187D01*
X027695Y011190D01*
X027746Y011189D01*
X027796Y011184D01*
X027846Y011175D01*
X027894Y011163D01*
X027942Y011146D01*
X027988Y011126D01*
X028033Y011103D01*
X028076Y011076D01*
X028116Y011046D01*
X028154Y011013D01*
X028189Y010977D01*
X028222Y010938D01*
X028251Y010897D01*
X028277Y010854D01*
X028300Y010809D01*
X028319Y010762D01*
X028334Y010714D01*
X028346Y010665D01*
X028354Y010615D01*
X028358Y010565D01*
X028358Y010515D01*
X028354Y010465D01*
X028346Y010415D01*
X028334Y010366D01*
X028319Y010318D01*
X028300Y010271D01*
X028277Y010226D01*
X028251Y010183D01*
X028222Y010142D01*
X028189Y010103D01*
X028154Y010067D01*
X028116Y010034D01*
X028076Y010004D01*
X028033Y009977D01*
X027988Y009954D01*
X027942Y009934D01*
X027894Y009917D01*
X027846Y009905D01*
X027796Y009896D01*
X027746Y009891D01*
X027695Y009890D01*
X027645Y009893D01*
X027595Y009900D01*
X027546Y009911D01*
X027498Y009925D01*
X027451Y009943D01*
X027405Y009965D01*
X027361Y009990D01*
X027320Y010019D01*
X027281Y010050D01*
X027244Y010085D01*
X027210Y010122D01*
X027179Y010162D01*
X027151Y010204D01*
X027127Y010248D01*
X027106Y010294D01*
X027089Y010342D01*
X027076Y010390D01*
X027066Y010440D01*
X027060Y010490D01*
X027058Y010540D01*
X036058Y010540D02*
X036060Y010590D01*
X036066Y010640D01*
X036076Y010690D01*
X036089Y010738D01*
X036106Y010786D01*
X036127Y010832D01*
X036151Y010876D01*
X036179Y010918D01*
X036210Y010958D01*
X036244Y010995D01*
X036281Y011030D01*
X036320Y011061D01*
X036361Y011090D01*
X036405Y011115D01*
X036451Y011137D01*
X036498Y011155D01*
X036546Y011169D01*
X036595Y011180D01*
X036645Y011187D01*
X036695Y011190D01*
X036746Y011189D01*
X036796Y011184D01*
X036846Y011175D01*
X036894Y011163D01*
X036942Y011146D01*
X036988Y011126D01*
X037033Y011103D01*
X037076Y011076D01*
X037116Y011046D01*
X037154Y011013D01*
X037189Y010977D01*
X037222Y010938D01*
X037251Y010897D01*
X037277Y010854D01*
X037300Y010809D01*
X037319Y010762D01*
X037334Y010714D01*
X037346Y010665D01*
X037354Y010615D01*
X037358Y010565D01*
X037358Y010515D01*
X037354Y010465D01*
X037346Y010415D01*
X037334Y010366D01*
X037319Y010318D01*
X037300Y010271D01*
X037277Y010226D01*
X037251Y010183D01*
X037222Y010142D01*
X037189Y010103D01*
X037154Y010067D01*
X037116Y010034D01*
X037076Y010004D01*
X037033Y009977D01*
X036988Y009954D01*
X036942Y009934D01*
X036894Y009917D01*
X036846Y009905D01*
X036796Y009896D01*
X036746Y009891D01*
X036695Y009890D01*
X036645Y009893D01*
X036595Y009900D01*
X036546Y009911D01*
X036498Y009925D01*
X036451Y009943D01*
X036405Y009965D01*
X036361Y009990D01*
X036320Y010019D01*
X036281Y010050D01*
X036244Y010085D01*
X036210Y010122D01*
X036179Y010162D01*
X036151Y010204D01*
X036127Y010248D01*
X036106Y010294D01*
X036089Y010342D01*
X036076Y010390D01*
X036066Y010440D01*
X036060Y010490D01*
X036058Y010540D01*
X036083Y012540D02*
X036085Y012590D01*
X036091Y012639D01*
X036101Y012688D01*
X036114Y012735D01*
X036132Y012782D01*
X036153Y012827D01*
X036177Y012870D01*
X036205Y012911D01*
X036236Y012950D01*
X036270Y012986D01*
X036307Y013020D01*
X036347Y013050D01*
X036388Y013077D01*
X036432Y013101D01*
X036477Y013121D01*
X036524Y013137D01*
X036572Y013150D01*
X036621Y013159D01*
X036671Y013164D01*
X036720Y013165D01*
X036770Y013162D01*
X036819Y013155D01*
X036868Y013144D01*
X036915Y013130D01*
X036961Y013111D01*
X037006Y013089D01*
X037049Y013064D01*
X037089Y013035D01*
X037127Y013003D01*
X037163Y012969D01*
X037196Y012931D01*
X037225Y012891D01*
X037251Y012849D01*
X037274Y012805D01*
X037293Y012759D01*
X037309Y012712D01*
X037321Y012663D01*
X037329Y012614D01*
X037333Y012565D01*
X037333Y012515D01*
X037329Y012466D01*
X037321Y012417D01*
X037309Y012368D01*
X037293Y012321D01*
X037274Y012275D01*
X037251Y012231D01*
X037225Y012189D01*
X037196Y012149D01*
X037163Y012111D01*
X037127Y012077D01*
X037089Y012045D01*
X037049Y012016D01*
X037006Y011991D01*
X036961Y011969D01*
X036915Y011950D01*
X036868Y011936D01*
X036819Y011925D01*
X036770Y011918D01*
X036720Y011915D01*
X036671Y011916D01*
X036621Y011921D01*
X036572Y011930D01*
X036524Y011943D01*
X036477Y011959D01*
X036432Y011979D01*
X036388Y012003D01*
X036347Y012030D01*
X036307Y012060D01*
X036270Y012094D01*
X036236Y012130D01*
X036205Y012169D01*
X036177Y012210D01*
X036153Y012253D01*
X036132Y012298D01*
X036114Y012345D01*
X036101Y012392D01*
X036091Y012441D01*
X036085Y012490D01*
X036083Y012540D01*
X036058Y021540D02*
X036060Y021590D01*
X036066Y021640D01*
X036076Y021690D01*
X036089Y021738D01*
X036106Y021786D01*
X036127Y021832D01*
X036151Y021876D01*
X036179Y021918D01*
X036210Y021958D01*
X036244Y021995D01*
X036281Y022030D01*
X036320Y022061D01*
X036361Y022090D01*
X036405Y022115D01*
X036451Y022137D01*
X036498Y022155D01*
X036546Y022169D01*
X036595Y022180D01*
X036645Y022187D01*
X036695Y022190D01*
X036746Y022189D01*
X036796Y022184D01*
X036846Y022175D01*
X036894Y022163D01*
X036942Y022146D01*
X036988Y022126D01*
X037033Y022103D01*
X037076Y022076D01*
X037116Y022046D01*
X037154Y022013D01*
X037189Y021977D01*
X037222Y021938D01*
X037251Y021897D01*
X037277Y021854D01*
X037300Y021809D01*
X037319Y021762D01*
X037334Y021714D01*
X037346Y021665D01*
X037354Y021615D01*
X037358Y021565D01*
X037358Y021515D01*
X037354Y021465D01*
X037346Y021415D01*
X037334Y021366D01*
X037319Y021318D01*
X037300Y021271D01*
X037277Y021226D01*
X037251Y021183D01*
X037222Y021142D01*
X037189Y021103D01*
X037154Y021067D01*
X037116Y021034D01*
X037076Y021004D01*
X037033Y020977D01*
X036988Y020954D01*
X036942Y020934D01*
X036894Y020917D01*
X036846Y020905D01*
X036796Y020896D01*
X036746Y020891D01*
X036695Y020890D01*
X036645Y020893D01*
X036595Y020900D01*
X036546Y020911D01*
X036498Y020925D01*
X036451Y020943D01*
X036405Y020965D01*
X036361Y020990D01*
X036320Y021019D01*
X036281Y021050D01*
X036244Y021085D01*
X036210Y021122D01*
X036179Y021162D01*
X036151Y021204D01*
X036127Y021248D01*
X036106Y021294D01*
X036089Y021342D01*
X036076Y021390D01*
X036066Y021440D01*
X036060Y021490D01*
X036058Y021540D01*
X033083Y025540D02*
X033085Y025590D01*
X033091Y025639D01*
X033101Y025688D01*
X033114Y025735D01*
X033132Y025782D01*
X033153Y025827D01*
X033177Y025870D01*
X033205Y025911D01*
X033236Y025950D01*
X033270Y025986D01*
X033307Y026020D01*
X033347Y026050D01*
X033388Y026077D01*
X033432Y026101D01*
X033477Y026121D01*
X033524Y026137D01*
X033572Y026150D01*
X033621Y026159D01*
X033671Y026164D01*
X033720Y026165D01*
X033770Y026162D01*
X033819Y026155D01*
X033868Y026144D01*
X033915Y026130D01*
X033961Y026111D01*
X034006Y026089D01*
X034049Y026064D01*
X034089Y026035D01*
X034127Y026003D01*
X034163Y025969D01*
X034196Y025931D01*
X034225Y025891D01*
X034251Y025849D01*
X034274Y025805D01*
X034293Y025759D01*
X034309Y025712D01*
X034321Y025663D01*
X034329Y025614D01*
X034333Y025565D01*
X034333Y025515D01*
X034329Y025466D01*
X034321Y025417D01*
X034309Y025368D01*
X034293Y025321D01*
X034274Y025275D01*
X034251Y025231D01*
X034225Y025189D01*
X034196Y025149D01*
X034163Y025111D01*
X034127Y025077D01*
X034089Y025045D01*
X034049Y025016D01*
X034006Y024991D01*
X033961Y024969D01*
X033915Y024950D01*
X033868Y024936D01*
X033819Y024925D01*
X033770Y024918D01*
X033720Y024915D01*
X033671Y024916D01*
X033621Y024921D01*
X033572Y024930D01*
X033524Y024943D01*
X033477Y024959D01*
X033432Y024979D01*
X033388Y025003D01*
X033347Y025030D01*
X033307Y025060D01*
X033270Y025094D01*
X033236Y025130D01*
X033205Y025169D01*
X033177Y025210D01*
X033153Y025253D01*
X033132Y025298D01*
X033114Y025345D01*
X033101Y025392D01*
X033091Y025441D01*
X033085Y025490D01*
X033083Y025540D01*
X036083Y029040D02*
X036085Y029090D01*
X036091Y029139D01*
X036101Y029188D01*
X036114Y029235D01*
X036132Y029282D01*
X036153Y029327D01*
X036177Y029370D01*
X036205Y029411D01*
X036236Y029450D01*
X036270Y029486D01*
X036307Y029520D01*
X036347Y029550D01*
X036388Y029577D01*
X036432Y029601D01*
X036477Y029621D01*
X036524Y029637D01*
X036572Y029650D01*
X036621Y029659D01*
X036671Y029664D01*
X036720Y029665D01*
X036770Y029662D01*
X036819Y029655D01*
X036868Y029644D01*
X036915Y029630D01*
X036961Y029611D01*
X037006Y029589D01*
X037049Y029564D01*
X037089Y029535D01*
X037127Y029503D01*
X037163Y029469D01*
X037196Y029431D01*
X037225Y029391D01*
X037251Y029349D01*
X037274Y029305D01*
X037293Y029259D01*
X037309Y029212D01*
X037321Y029163D01*
X037329Y029114D01*
X037333Y029065D01*
X037333Y029015D01*
X037329Y028966D01*
X037321Y028917D01*
X037309Y028868D01*
X037293Y028821D01*
X037274Y028775D01*
X037251Y028731D01*
X037225Y028689D01*
X037196Y028649D01*
X037163Y028611D01*
X037127Y028577D01*
X037089Y028545D01*
X037049Y028516D01*
X037006Y028491D01*
X036961Y028469D01*
X036915Y028450D01*
X036868Y028436D01*
X036819Y028425D01*
X036770Y028418D01*
X036720Y028415D01*
X036671Y028416D01*
X036621Y028421D01*
X036572Y028430D01*
X036524Y028443D01*
X036477Y028459D01*
X036432Y028479D01*
X036388Y028503D01*
X036347Y028530D01*
X036307Y028560D01*
X036270Y028594D01*
X036236Y028630D01*
X036205Y028669D01*
X036177Y028710D01*
X036153Y028753D01*
X036132Y028798D01*
X036114Y028845D01*
X036101Y028892D01*
X036091Y028941D01*
X036085Y028990D01*
X036083Y029040D01*
X027058Y021540D02*
X027060Y021590D01*
X027066Y021640D01*
X027076Y021690D01*
X027089Y021738D01*
X027106Y021786D01*
X027127Y021832D01*
X027151Y021876D01*
X027179Y021918D01*
X027210Y021958D01*
X027244Y021995D01*
X027281Y022030D01*
X027320Y022061D01*
X027361Y022090D01*
X027405Y022115D01*
X027451Y022137D01*
X027498Y022155D01*
X027546Y022169D01*
X027595Y022180D01*
X027645Y022187D01*
X027695Y022190D01*
X027746Y022189D01*
X027796Y022184D01*
X027846Y022175D01*
X027894Y022163D01*
X027942Y022146D01*
X027988Y022126D01*
X028033Y022103D01*
X028076Y022076D01*
X028116Y022046D01*
X028154Y022013D01*
X028189Y021977D01*
X028222Y021938D01*
X028251Y021897D01*
X028277Y021854D01*
X028300Y021809D01*
X028319Y021762D01*
X028334Y021714D01*
X028346Y021665D01*
X028354Y021615D01*
X028358Y021565D01*
X028358Y021515D01*
X028354Y021465D01*
X028346Y021415D01*
X028334Y021366D01*
X028319Y021318D01*
X028300Y021271D01*
X028277Y021226D01*
X028251Y021183D01*
X028222Y021142D01*
X028189Y021103D01*
X028154Y021067D01*
X028116Y021034D01*
X028076Y021004D01*
X028033Y020977D01*
X027988Y020954D01*
X027942Y020934D01*
X027894Y020917D01*
X027846Y020905D01*
X027796Y020896D01*
X027746Y020891D01*
X027695Y020890D01*
X027645Y020893D01*
X027595Y020900D01*
X027546Y020911D01*
X027498Y020925D01*
X027451Y020943D01*
X027405Y020965D01*
X027361Y020990D01*
X027320Y021019D01*
X027281Y021050D01*
X027244Y021085D01*
X027210Y021122D01*
X027179Y021162D01*
X027151Y021204D01*
X027127Y021248D01*
X027106Y021294D01*
X027089Y021342D01*
X027076Y021390D01*
X027066Y021440D01*
X027060Y021490D01*
X027058Y021540D01*
X012583Y029540D02*
X012585Y029590D01*
X012591Y029639D01*
X012601Y029688D01*
X012614Y029735D01*
X012632Y029782D01*
X012653Y029827D01*
X012677Y029870D01*
X012705Y029911D01*
X012736Y029950D01*
X012770Y029986D01*
X012807Y030020D01*
X012847Y030050D01*
X012888Y030077D01*
X012932Y030101D01*
X012977Y030121D01*
X013024Y030137D01*
X013072Y030150D01*
X013121Y030159D01*
X013171Y030164D01*
X013220Y030165D01*
X013270Y030162D01*
X013319Y030155D01*
X013368Y030144D01*
X013415Y030130D01*
X013461Y030111D01*
X013506Y030089D01*
X013549Y030064D01*
X013589Y030035D01*
X013627Y030003D01*
X013663Y029969D01*
X013696Y029931D01*
X013725Y029891D01*
X013751Y029849D01*
X013774Y029805D01*
X013793Y029759D01*
X013809Y029712D01*
X013821Y029663D01*
X013829Y029614D01*
X013833Y029565D01*
X013833Y029515D01*
X013829Y029466D01*
X013821Y029417D01*
X013809Y029368D01*
X013793Y029321D01*
X013774Y029275D01*
X013751Y029231D01*
X013725Y029189D01*
X013696Y029149D01*
X013663Y029111D01*
X013627Y029077D01*
X013589Y029045D01*
X013549Y029016D01*
X013506Y028991D01*
X013461Y028969D01*
X013415Y028950D01*
X013368Y028936D01*
X013319Y028925D01*
X013270Y028918D01*
X013220Y028915D01*
X013171Y028916D01*
X013121Y028921D01*
X013072Y028930D01*
X013024Y028943D01*
X012977Y028959D01*
X012932Y028979D01*
X012888Y029003D01*
X012847Y029030D01*
X012807Y029060D01*
X012770Y029094D01*
X012736Y029130D01*
X012705Y029169D01*
X012677Y029210D01*
X012653Y029253D01*
X012632Y029298D01*
X012614Y029345D01*
X012601Y029392D01*
X012591Y029441D01*
X012585Y029490D01*
X012583Y029540D01*
D11*
X014708Y028803D02*
X014708Y028540D01*
X015708Y028540D02*
X015708Y028803D01*
X016708Y028803D02*
X016708Y028540D01*
X017708Y028540D02*
X017708Y028803D01*
X018708Y028803D02*
X018708Y028540D01*
X018708Y027540D02*
X018708Y027278D01*
X017708Y027278D02*
X017708Y027540D01*
X016708Y027540D02*
X016708Y027278D01*
X015708Y027278D02*
X015708Y027540D01*
X014708Y027540D02*
X014708Y027278D01*
X026946Y027040D02*
X027471Y027040D01*
X027471Y026040D02*
X026946Y026040D01*
X026946Y025040D02*
X027471Y025040D01*
X027471Y028040D02*
X026946Y028040D01*
X026946Y029040D02*
X027471Y029040D01*
X018971Y017040D02*
X018446Y017040D01*
X018446Y016040D02*
X018971Y016040D01*
X019446Y014540D02*
X019971Y014540D01*
X021446Y014540D02*
X021971Y014540D01*
X022708Y016278D02*
X022708Y016803D01*
X023708Y016803D02*
X023708Y016278D01*
X024446Y014540D02*
X024971Y014540D01*
X030708Y010303D02*
X030708Y009778D01*
X031708Y009778D02*
X031708Y010303D01*
X032708Y010303D02*
X032708Y009778D01*
X033708Y009778D02*
X033708Y010303D01*
X016971Y014540D02*
X016446Y014540D01*
D12*
X018208Y019540D02*
X018533Y019540D01*
X019384Y021540D02*
X019708Y021540D01*
X018533Y023540D02*
X018208Y023540D01*
X022708Y023540D02*
X023033Y023540D01*
X023884Y021540D02*
X024208Y021540D01*
X023033Y019540D02*
X022708Y019540D01*
D13*
X014708Y019040D03*
X014708Y017040D03*
X014708Y022540D03*
X014708Y024540D03*
D14*
X015708Y012306D02*
X015708Y011774D01*
X016708Y011774D02*
X016708Y012306D01*
X017708Y012306D02*
X017708Y011774D01*
D15*
X017708Y012040D02*
X017708Y013540D01*
X013708Y013540D01*
X013708Y025540D01*
X014208Y026040D01*
X015708Y026040D01*
X015708Y027540D01*
X018708Y028540D02*
X019708Y028040D01*
X027208Y028040D01*
X029208Y028040D01*
X029208Y023540D01*
X022708Y023540D01*
X024208Y021540D02*
X024208Y017540D01*
X023708Y016540D01*
X022708Y016540D02*
X021708Y015540D01*
X021708Y014540D01*
X018708Y016040D02*
X017708Y016040D01*
X016708Y015040D01*
X016708Y014540D01*
X016708Y012040D02*
X016708Y011040D01*
X018208Y011040D01*
X019708Y011540D01*
X031708Y011540D01*
X031708Y016540D01*
X029208Y019540D01*
X029208Y023540D01*
X019708Y021540D02*
X017708Y021540D01*
X014708Y019040D01*
X015208Y018540D01*
X017708Y018540D01*
X018708Y017540D01*
X018708Y017040D01*
X016708Y022540D02*
X014708Y022540D01*
X016708Y022540D02*
X017708Y023540D01*
X018708Y023540D01*
X031708Y011540D02*
X031708Y010040D01*
D16*
X031208Y009720D02*
X031208Y009678D01*
X031284Y009494D01*
X031425Y009353D01*
X031609Y009277D01*
X031808Y009277D01*
X031992Y009353D01*
X032133Y009494D01*
X032208Y009677D01*
X032284Y009494D01*
X032425Y009353D01*
X032609Y009277D01*
X032808Y009277D01*
X032992Y009353D01*
X033133Y009494D01*
X033208Y009677D01*
X033284Y009494D01*
X033425Y009353D01*
X033609Y009277D01*
X033808Y009277D01*
X033992Y009353D01*
X034133Y009494D01*
X034209Y009678D01*
X034209Y010402D01*
X034133Y010586D01*
X033996Y010722D01*
X033996Y017020D01*
X034001Y017056D01*
X033996Y017076D01*
X033996Y017097D01*
X033982Y017131D01*
X033973Y017167D01*
X033960Y017184D01*
X033952Y017203D01*
X033926Y017229D01*
X030996Y021136D01*
X030996Y030097D01*
X030952Y030203D01*
X030871Y030284D01*
X030766Y030328D01*
X017651Y030328D01*
X017545Y030284D01*
X017464Y030203D01*
X017420Y030097D01*
X017420Y029222D01*
X017284Y029086D01*
X017208Y028903D01*
X017133Y029086D01*
X016992Y029227D01*
X016808Y029303D01*
X016609Y029303D01*
X016425Y029227D01*
X016284Y029086D01*
X016208Y028903D01*
X016133Y029086D01*
X015992Y029227D01*
X015808Y029303D01*
X015609Y029303D01*
X015425Y029227D01*
X015284Y029086D01*
X015208Y028903D01*
X015133Y029086D01*
X014992Y029227D01*
X014808Y029303D01*
X014609Y029303D01*
X014425Y029227D01*
X014284Y029086D01*
X014208Y028902D01*
X014208Y028440D01*
X014284Y028257D01*
X014425Y028116D01*
X014609Y028040D01*
X014651Y028040D01*
X014591Y028030D01*
X014515Y028006D01*
X014445Y027970D01*
X014381Y027923D01*
X014325Y027867D01*
X014279Y027803D01*
X014243Y027733D01*
X014218Y027658D01*
X014206Y027580D01*
X014206Y027548D01*
X014701Y027548D01*
X014701Y027532D01*
X014716Y027532D01*
X014716Y026775D01*
X014748Y026775D01*
X014826Y026787D01*
X014901Y026812D01*
X014972Y026848D01*
X015036Y026894D01*
X015092Y026950D01*
X015138Y027014D01*
X015174Y027085D01*
X015198Y027160D01*
X015208Y027220D01*
X015208Y027178D01*
X015284Y026994D01*
X015350Y026928D01*
X015350Y026398D01*
X014137Y026398D01*
X014006Y026343D01*
X013905Y026243D01*
X013405Y025743D01*
X013350Y025611D01*
X013350Y015120D01*
X013208Y015262D01*
X013208Y028676D01*
X013380Y028676D01*
X013698Y028807D01*
X013941Y029051D01*
X014072Y029368D01*
X014072Y029712D01*
X013941Y030029D01*
X013897Y030073D01*
X014208Y030540D01*
X034208Y030540D01*
X034708Y030040D01*
X034708Y026053D01*
X034582Y026273D01*
X034582Y026273D01*
X034582Y026273D01*
X034278Y026527D01*
X033906Y026663D01*
X033510Y026663D01*
X033138Y026527D01*
X032835Y026273D01*
X032835Y026273D01*
X032637Y025930D01*
X032637Y025930D01*
X032568Y025540D01*
X032637Y025150D01*
X032637Y025150D01*
X032835Y024807D01*
X033138Y024553D01*
X033510Y024417D01*
X033906Y024417D01*
X034278Y024553D01*
X034278Y024553D01*
X034582Y024807D01*
X034582Y024807D01*
X034708Y025027D01*
X034708Y009540D01*
X034208Y009040D01*
X014208Y009040D01*
X013208Y010040D01*
X013208Y013818D01*
X013350Y013960D01*
X013350Y013469D01*
X013405Y013337D01*
X013506Y013237D01*
X013637Y013182D01*
X017350Y013182D01*
X017350Y012660D01*
X017281Y012591D01*
X017208Y012415D01*
X017135Y012591D01*
X016994Y012733D01*
X016809Y012809D01*
X016608Y012809D01*
X016423Y012733D01*
X016281Y012591D01*
X016205Y012406D01*
X016205Y012405D01*
X016202Y012424D01*
X016177Y012500D01*
X016141Y012571D01*
X016094Y012635D01*
X016038Y012692D01*
X015973Y012738D01*
X015902Y012774D01*
X015827Y012799D01*
X015748Y012811D01*
X015717Y012811D01*
X015717Y012049D01*
X015700Y012049D01*
X015700Y012811D01*
X015669Y012811D01*
X015590Y012799D01*
X015514Y012774D01*
X015443Y012738D01*
X015379Y012692D01*
X015323Y012635D01*
X015276Y012571D01*
X015240Y012500D01*
X015215Y012424D01*
X015203Y012346D01*
X015203Y012049D01*
X015700Y012049D01*
X015700Y012031D01*
X015717Y012031D01*
X015717Y011269D01*
X015700Y011269D01*
X015700Y012031D01*
X015203Y012031D01*
X015203Y011734D01*
X015215Y011656D01*
X015240Y011580D01*
X015276Y011509D01*
X015323Y011445D01*
X015379Y011388D01*
X015443Y011342D01*
X015514Y011306D01*
X015590Y011281D01*
X015669Y011269D01*
X015700Y011269D01*
X015717Y011269D02*
X015748Y011269D01*
X015827Y011281D01*
X015902Y011306D01*
X015973Y011342D01*
X016038Y011388D01*
X016094Y011445D01*
X016141Y011509D01*
X016177Y011580D01*
X016202Y011656D01*
X016205Y011675D01*
X016205Y011674D01*
X016281Y011489D01*
X016350Y011420D01*
X016350Y010969D01*
X016405Y010837D01*
X016506Y010737D01*
X016637Y010682D01*
X018196Y010682D01*
X018254Y010678D01*
X018266Y010682D01*
X018280Y010682D01*
X018334Y010705D01*
X019766Y011182D01*
X027093Y011182D01*
X026955Y011044D01*
X026819Y010717D01*
X026819Y010363D01*
X026955Y010036D01*
X027205Y009786D01*
X027531Y009651D01*
X027885Y009651D01*
X028212Y009786D01*
X028462Y010036D01*
X028597Y010363D01*
X028597Y010717D01*
X028462Y011044D01*
X028324Y011182D01*
X031350Y011182D01*
X031350Y010652D01*
X031284Y010586D01*
X031208Y010402D01*
X031208Y010360D01*
X031198Y010420D01*
X031174Y010495D01*
X031138Y010566D01*
X031092Y010630D01*
X031036Y010686D01*
X030972Y010732D01*
X030901Y010768D01*
X030826Y010793D01*
X030748Y010805D01*
X030716Y010805D01*
X030716Y010048D01*
X030701Y010048D01*
X030701Y010805D01*
X030669Y010805D01*
X030591Y010793D01*
X030515Y010768D01*
X030445Y010732D01*
X030381Y010686D01*
X030325Y010630D01*
X030279Y010566D01*
X030243Y010495D01*
X030218Y010420D01*
X030206Y010342D01*
X030206Y010048D01*
X030701Y010048D01*
X030701Y010032D01*
X030716Y010032D01*
X030716Y009275D01*
X030748Y009275D01*
X030826Y009287D01*
X030901Y009312D01*
X030972Y009348D01*
X031036Y009394D01*
X031092Y009450D01*
X031138Y009514D01*
X031174Y009585D01*
X031198Y009660D01*
X031208Y009720D01*
X031202Y009684D02*
X031208Y009684D01*
X031144Y009526D02*
X031271Y009526D01*
X031411Y009367D02*
X030998Y009367D01*
X030716Y009367D02*
X030701Y009367D01*
X030701Y009275D02*
X030701Y010032D01*
X030206Y010032D01*
X030206Y009738D01*
X030218Y009660D01*
X030243Y009585D01*
X030279Y009514D01*
X030325Y009450D01*
X030381Y009394D01*
X030445Y009348D01*
X030515Y009312D01*
X030591Y009287D01*
X030669Y009275D01*
X030701Y009275D01*
X030701Y009526D02*
X030716Y009526D01*
X030701Y009684D02*
X030716Y009684D01*
X030701Y009843D02*
X030716Y009843D01*
X030701Y010001D02*
X030716Y010001D01*
X030701Y010160D02*
X030716Y010160D01*
X030701Y010318D02*
X030716Y010318D01*
X030701Y010477D02*
X030716Y010477D01*
X030701Y010635D02*
X030716Y010635D01*
X030701Y010794D02*
X030716Y010794D01*
X030820Y010794D02*
X031350Y010794D01*
X031350Y010952D02*
X028500Y010952D01*
X028566Y010794D02*
X030596Y010794D01*
X030330Y010635D02*
X028597Y010635D01*
X028597Y010477D02*
X030237Y010477D01*
X030206Y010318D02*
X028579Y010318D01*
X028513Y010160D02*
X030206Y010160D01*
X030206Y010001D02*
X028427Y010001D01*
X028268Y009843D02*
X030206Y009843D01*
X030214Y009684D02*
X027965Y009684D01*
X027452Y009684D02*
X013564Y009684D01*
X013406Y009843D02*
X027149Y009843D01*
X026990Y010001D02*
X013247Y010001D01*
X013208Y010160D02*
X026904Y010160D01*
X026838Y010318D02*
X013208Y010318D01*
X013208Y010477D02*
X026819Y010477D01*
X026819Y010635D02*
X013208Y010635D01*
X013208Y010794D02*
X016449Y010794D01*
X016357Y010952D02*
X013208Y010952D01*
X013208Y011111D02*
X016350Y011111D01*
X016350Y011269D02*
X015751Y011269D01*
X015665Y011269D02*
X013208Y011269D01*
X013208Y011428D02*
X015340Y011428D01*
X015238Y011586D02*
X013208Y011586D01*
X013208Y011745D02*
X015203Y011745D01*
X015203Y011903D02*
X013208Y011903D01*
X013208Y012062D02*
X015203Y012062D01*
X015203Y012220D02*
X013208Y012220D01*
X013208Y012379D02*
X015208Y012379D01*
X015259Y012537D02*
X013208Y012537D01*
X013208Y012696D02*
X015384Y012696D01*
X015700Y012696D02*
X015717Y012696D01*
X015700Y012537D02*
X015717Y012537D01*
X015700Y012379D02*
X015717Y012379D01*
X015700Y012220D02*
X015717Y012220D01*
X015700Y012062D02*
X015717Y012062D01*
X015700Y011903D02*
X015717Y011903D01*
X015700Y011745D02*
X015717Y011745D01*
X015700Y011586D02*
X015717Y011586D01*
X015700Y011428D02*
X015717Y011428D01*
X016077Y011428D02*
X016343Y011428D01*
X016241Y011586D02*
X016179Y011586D01*
X016158Y012537D02*
X016259Y012537D01*
X016386Y012696D02*
X016032Y012696D01*
X017031Y012696D02*
X017350Y012696D01*
X017350Y012854D02*
X013208Y012854D01*
X013208Y013013D02*
X017350Y013013D01*
X017350Y013171D02*
X013208Y013171D01*
X013208Y013330D02*
X013413Y013330D01*
X013350Y013488D02*
X013208Y013488D01*
X013208Y013647D02*
X013350Y013647D01*
X013350Y013805D02*
X013208Y013805D01*
X014066Y013898D02*
X014066Y016346D01*
X014095Y016327D01*
X014138Y016309D01*
X014185Y016300D01*
X014683Y016300D01*
X014683Y017015D01*
X014733Y017015D01*
X014733Y016300D01*
X015232Y016300D01*
X015278Y016309D01*
X015322Y016327D01*
X015361Y016354D01*
X015395Y016387D01*
X015421Y016426D01*
X015439Y016470D01*
X015448Y016516D01*
X015448Y017015D01*
X014733Y017015D01*
X014733Y017065D01*
X014683Y017065D01*
X014683Y017780D01*
X014185Y017780D01*
X014138Y017771D01*
X014095Y017753D01*
X014066Y017734D01*
X014066Y018346D01*
X014110Y018302D01*
X014940Y018302D01*
X015006Y018237D01*
X015137Y018182D01*
X017560Y018182D01*
X018244Y017498D01*
X018162Y017464D01*
X018022Y017323D01*
X017945Y017140D01*
X017945Y016940D01*
X018022Y016757D01*
X018162Y016616D01*
X018345Y016540D01*
X018162Y016464D01*
X018096Y016398D01*
X017637Y016398D01*
X017506Y016343D01*
X016506Y015343D01*
X016405Y015243D01*
X016350Y015111D01*
X016350Y015040D01*
X016346Y015040D01*
X016162Y014964D01*
X016022Y014823D01*
X015945Y014640D01*
X015945Y014440D01*
X016022Y014257D01*
X016162Y014116D01*
X016346Y014040D01*
X017070Y014040D01*
X017254Y014116D01*
X017395Y014257D01*
X017471Y014440D01*
X017471Y014640D01*
X017395Y014823D01*
X017254Y014964D01*
X017173Y014998D01*
X017857Y015682D01*
X018096Y015682D01*
X018162Y015616D01*
X018346Y015540D01*
X019070Y015540D01*
X019254Y015616D01*
X019395Y015757D01*
X019471Y015940D01*
X019471Y016140D01*
X019395Y016323D01*
X019254Y016464D01*
X019071Y016540D01*
X019254Y016616D01*
X019395Y016757D01*
X019471Y016940D01*
X019471Y017140D01*
X019395Y017323D01*
X019254Y017464D01*
X019070Y017540D01*
X019066Y017540D01*
X019066Y017611D01*
X019012Y017743D01*
X018911Y017843D01*
X017911Y018843D01*
X017780Y018898D01*
X015446Y018898D01*
X015446Y019189D01*
X017838Y021182D01*
X018946Y021182D01*
X019065Y021063D01*
X019272Y020977D01*
X019820Y020977D01*
X020027Y021063D01*
X020185Y021221D01*
X020271Y021428D01*
X020271Y021652D01*
X020185Y021859D01*
X020027Y022017D01*
X019820Y022103D01*
X019272Y022103D01*
X019065Y022017D01*
X018946Y021898D01*
X017725Y021898D01*
X017670Y021903D01*
X017654Y021898D01*
X017637Y021898D01*
X017586Y021877D01*
X017534Y021860D01*
X017521Y021850D01*
X017506Y021843D01*
X017467Y021805D01*
X015035Y019778D01*
X014110Y019778D01*
X014066Y019734D01*
X014066Y021846D01*
X014110Y021802D01*
X015307Y021802D01*
X015446Y021941D01*
X015446Y022182D01*
X016780Y022182D01*
X016911Y022237D01*
X017814Y023139D01*
X017890Y023063D01*
X018096Y022977D01*
X018645Y022977D01*
X018852Y023063D01*
X019010Y023221D01*
X019096Y023428D01*
X019096Y023652D01*
X019010Y023859D01*
X018852Y024017D01*
X018645Y024103D01*
X018096Y024103D01*
X017890Y024017D01*
X017770Y023898D01*
X017637Y023898D01*
X017506Y023843D01*
X017405Y023743D01*
X016560Y022898D01*
X015446Y022898D01*
X015446Y023139D01*
X015307Y023278D01*
X014110Y023278D01*
X014066Y023234D01*
X014066Y023846D01*
X014095Y023827D01*
X014138Y023809D01*
X014185Y023800D01*
X014683Y023800D01*
X014683Y024515D01*
X014733Y024515D01*
X014733Y023800D01*
X015232Y023800D01*
X015278Y023809D01*
X015322Y023827D01*
X015361Y023854D01*
X015395Y023887D01*
X015421Y023926D01*
X015439Y023970D01*
X015448Y024016D01*
X015448Y024515D01*
X014733Y024515D01*
X014733Y024565D01*
X014683Y024565D01*
X014683Y025280D01*
X014185Y025280D01*
X014138Y025271D01*
X014095Y025253D01*
X014066Y025234D01*
X014066Y025392D01*
X014357Y025682D01*
X015780Y025682D01*
X015911Y025737D01*
X015920Y025746D01*
X015920Y024983D01*
X015964Y024877D01*
X016045Y024796D01*
X016045Y024796D01*
X016464Y024377D01*
X016545Y024296D01*
X016651Y024252D01*
X020589Y024252D01*
X020920Y023921D01*
X020920Y021983D01*
X020964Y021877D01*
X021464Y021377D01*
X021545Y021296D01*
X021651Y021252D01*
X023394Y021252D01*
X023407Y021221D01*
X023565Y021063D01*
X023772Y020977D01*
X023850Y020977D01*
X023850Y017624D01*
X023690Y017303D01*
X023609Y017303D01*
X023425Y017227D01*
X023284Y017086D01*
X023208Y016903D01*
X023133Y017086D01*
X022992Y017227D01*
X022808Y017303D01*
X022609Y017303D01*
X022425Y017227D01*
X022284Y017086D01*
X022208Y016902D01*
X022208Y016546D01*
X021506Y015843D01*
X021405Y015743D01*
X021350Y015611D01*
X021350Y015040D01*
X021346Y015040D01*
X021162Y014964D01*
X021022Y014823D01*
X020945Y014640D01*
X020945Y014440D01*
X021022Y014257D01*
X021162Y014116D01*
X021346Y014040D01*
X022070Y014040D01*
X022254Y014116D01*
X022395Y014257D01*
X022471Y014440D01*
X022471Y014640D01*
X022395Y014823D01*
X022254Y014964D01*
X022070Y015040D01*
X022066Y015040D01*
X022066Y015392D01*
X022498Y015823D01*
X022609Y015777D01*
X022808Y015777D01*
X022992Y015853D01*
X023133Y015994D01*
X023208Y016177D01*
X023284Y015994D01*
X023425Y015853D01*
X023609Y015777D01*
X023808Y015777D01*
X023992Y015853D01*
X024133Y015994D01*
X024209Y016178D01*
X024209Y016741D01*
X024502Y017328D01*
X024512Y017337D01*
X024534Y017391D01*
X024560Y017444D01*
X024561Y017457D01*
X024566Y017469D01*
X024566Y017527D01*
X024570Y017586D01*
X024566Y017598D01*
X024566Y021102D01*
X024685Y021221D01*
X024771Y021428D01*
X024771Y021652D01*
X024685Y021859D01*
X024527Y022017D01*
X024320Y022103D01*
X023772Y022103D01*
X023565Y022017D01*
X023407Y021859D01*
X023394Y021828D01*
X021828Y021828D01*
X021496Y022159D01*
X021496Y024097D01*
X021452Y024203D01*
X021371Y024284D01*
X020871Y024784D01*
X020766Y024828D01*
X016828Y024828D01*
X016496Y025159D01*
X016496Y025845D01*
X016545Y025796D01*
X016651Y025752D01*
X026526Y025752D01*
X026662Y025616D01*
X026845Y025540D01*
X026662Y025464D01*
X026522Y025323D01*
X026445Y025140D01*
X026445Y024940D01*
X026522Y024757D01*
X026662Y024616D01*
X026846Y024540D01*
X027570Y024540D01*
X027754Y024616D01*
X027895Y024757D01*
X027940Y024864D01*
X028371Y025296D01*
X028452Y025377D01*
X028496Y025483D01*
X028496Y026597D01*
X028452Y026703D01*
X028371Y026784D01*
X028266Y026828D01*
X027927Y026828D01*
X027937Y026847D01*
X027961Y026922D01*
X027973Y027000D01*
X027973Y027032D01*
X027216Y027032D01*
X027216Y027048D01*
X027973Y027048D01*
X027973Y027080D01*
X027961Y027158D01*
X027937Y027233D01*
X027901Y027303D01*
X027854Y027367D01*
X027798Y027423D01*
X027734Y027470D01*
X027664Y027506D01*
X027589Y027530D01*
X027529Y027540D01*
X027570Y027540D01*
X027754Y027616D01*
X027821Y027682D01*
X028850Y027682D01*
X028850Y023898D01*
X023471Y023898D01*
X023352Y024017D01*
X023145Y024103D01*
X022596Y024103D01*
X022390Y024017D01*
X022231Y023859D01*
X022146Y023652D01*
X022146Y023428D01*
X022231Y023221D01*
X022390Y023063D01*
X022596Y022977D01*
X023145Y022977D01*
X023352Y023063D01*
X023471Y023182D01*
X028850Y023182D01*
X028850Y019556D01*
X028845Y019502D01*
X028850Y019486D01*
X028850Y019469D01*
X028871Y019418D01*
X028888Y019366D01*
X028899Y019353D01*
X028905Y019337D01*
X028944Y019298D01*
X031350Y016410D01*
X031350Y011898D01*
X019721Y011898D01*
X019663Y011902D01*
X019650Y011898D01*
X019637Y011898D01*
X019583Y011875D01*
X018150Y011398D01*
X018044Y011398D01*
X018135Y011489D01*
X018212Y011674D01*
X018212Y012406D01*
X018135Y012591D01*
X018066Y012660D01*
X018066Y013611D01*
X018012Y013743D01*
X017911Y013843D01*
X017780Y013898D01*
X014066Y013898D01*
X014066Y013964D02*
X031350Y013964D01*
X031350Y014122D02*
X025250Y014122D01*
X025234Y014110D02*
X025298Y014157D01*
X025354Y014213D01*
X025401Y014277D01*
X025437Y014347D01*
X025461Y014422D01*
X025473Y014500D01*
X025473Y014532D01*
X024716Y014532D01*
X024716Y014038D01*
X025010Y014038D01*
X025089Y014050D01*
X025164Y014074D01*
X025234Y014110D01*
X025403Y014281D02*
X031350Y014281D01*
X031350Y014439D02*
X025464Y014439D01*
X025473Y014548D02*
X025473Y014580D01*
X025461Y014658D01*
X025437Y014733D01*
X025401Y014803D01*
X025354Y014867D01*
X025298Y014923D01*
X025234Y014970D01*
X025164Y015006D01*
X025089Y015030D01*
X025010Y015042D01*
X024716Y015042D01*
X024716Y014548D01*
X024701Y014548D01*
X024701Y015042D01*
X024406Y015042D01*
X024328Y015030D01*
X024253Y015006D01*
X024182Y014970D01*
X024118Y014923D01*
X024063Y014867D01*
X024016Y014803D01*
X023980Y014733D01*
X023956Y014658D01*
X023943Y014580D01*
X023943Y014548D01*
X024701Y014548D01*
X024701Y014532D01*
X024716Y014532D01*
X024716Y014548D01*
X025473Y014548D01*
X025470Y014598D02*
X031350Y014598D01*
X031350Y014756D02*
X025425Y014756D01*
X025307Y014915D02*
X031350Y014915D01*
X031350Y015073D02*
X022066Y015073D01*
X022066Y015232D02*
X031350Y015232D01*
X031350Y015390D02*
X022066Y015390D01*
X022223Y015549D02*
X031350Y015549D01*
X031350Y015707D02*
X022381Y015707D01*
X021845Y016183D02*
X019453Y016183D01*
X019471Y016024D02*
X021686Y016024D01*
X021528Y015866D02*
X019440Y015866D01*
X019345Y015707D02*
X021390Y015707D01*
X021350Y015549D02*
X019092Y015549D01*
X019253Y015006D02*
X019182Y014970D01*
X019118Y014923D01*
X019063Y014867D01*
X019016Y014803D01*
X018980Y014733D01*
X018956Y014658D01*
X018943Y014580D01*
X018943Y014548D01*
X019701Y014548D01*
X019701Y015042D01*
X019406Y015042D01*
X019328Y015030D01*
X019253Y015006D01*
X019110Y014915D02*
X017304Y014915D01*
X017247Y015073D02*
X021350Y015073D01*
X021350Y015232D02*
X017406Y015232D01*
X017564Y015390D02*
X021350Y015390D01*
X021113Y014915D02*
X020307Y014915D01*
X020298Y014923D02*
X020234Y014970D01*
X020164Y015006D01*
X020089Y015030D01*
X020010Y015042D01*
X019716Y015042D01*
X019716Y014548D01*
X019701Y014548D01*
X019701Y014532D01*
X019716Y014532D01*
X019716Y014038D01*
X020010Y014038D01*
X020089Y014050D01*
X020164Y014074D01*
X020234Y014110D01*
X020298Y014157D01*
X020354Y014213D01*
X020401Y014277D01*
X020437Y014347D01*
X020461Y014422D01*
X020473Y014500D01*
X020473Y014532D01*
X019716Y014532D01*
X019716Y014548D01*
X020473Y014548D01*
X020473Y014580D01*
X020461Y014658D01*
X020437Y014733D01*
X020401Y014803D01*
X020354Y014867D01*
X020298Y014923D01*
X020425Y014756D02*
X020994Y014756D01*
X020945Y014598D02*
X020470Y014598D01*
X020464Y014439D02*
X020946Y014439D01*
X021012Y014281D02*
X020403Y014281D01*
X020250Y014122D02*
X021156Y014122D01*
X022260Y014122D02*
X024166Y014122D01*
X024182Y014110D02*
X024253Y014074D01*
X024328Y014050D01*
X024406Y014038D01*
X024701Y014038D01*
X024701Y014532D01*
X023943Y014532D01*
X023943Y014500D01*
X023956Y014422D01*
X023980Y014347D01*
X024016Y014277D01*
X024063Y014213D01*
X024118Y014157D01*
X024182Y014110D01*
X024014Y014281D02*
X022405Y014281D01*
X022471Y014439D02*
X023953Y014439D01*
X023946Y014598D02*
X022471Y014598D01*
X022423Y014756D02*
X023992Y014756D01*
X024110Y014915D02*
X022304Y014915D01*
X023004Y015866D02*
X023413Y015866D01*
X023272Y016024D02*
X023145Y016024D01*
X022162Y016500D02*
X019169Y016500D01*
X019296Y016658D02*
X022208Y016658D01*
X022208Y016817D02*
X019420Y016817D01*
X019471Y016975D02*
X022238Y016975D01*
X022332Y017134D02*
X019471Y017134D01*
X019408Y017292D02*
X022583Y017292D01*
X022834Y017292D02*
X023583Y017292D01*
X023763Y017451D02*
X019268Y017451D01*
X019066Y017609D02*
X023843Y017609D01*
X023850Y017768D02*
X018987Y017768D01*
X018828Y017926D02*
X023850Y017926D01*
X023850Y018085D02*
X018670Y018085D01*
X018511Y018243D02*
X023850Y018243D01*
X023850Y018402D02*
X018353Y018402D01*
X018194Y018560D02*
X023850Y018560D01*
X023850Y018719D02*
X018036Y018719D01*
X017830Y018877D02*
X023850Y018877D01*
X023850Y019036D02*
X023286Y019036D01*
X023352Y019063D02*
X023510Y019221D01*
X023596Y019428D01*
X023596Y019652D01*
X023510Y019859D01*
X023352Y020017D01*
X023145Y020103D01*
X022596Y020103D01*
X022390Y020017D01*
X022231Y019859D01*
X022146Y019652D01*
X022146Y019428D01*
X022231Y019221D01*
X022390Y019063D01*
X022596Y018977D01*
X023145Y018977D01*
X023352Y019063D01*
X023483Y019194D02*
X023850Y019194D01*
X023850Y019353D02*
X023565Y019353D01*
X023596Y019511D02*
X023850Y019511D01*
X023850Y019670D02*
X023589Y019670D01*
X023523Y019828D02*
X023850Y019828D01*
X023850Y019987D02*
X023382Y019987D01*
X023850Y020145D02*
X016593Y020145D01*
X016403Y019987D02*
X017859Y019987D01*
X017890Y020017D02*
X017731Y019859D01*
X017646Y019652D01*
X017646Y019428D01*
X017731Y019221D01*
X017890Y019063D01*
X018096Y018977D01*
X018645Y018977D01*
X018852Y019063D01*
X019010Y019221D01*
X019096Y019428D01*
X019096Y019652D01*
X019010Y019859D01*
X018852Y020017D01*
X018645Y020103D01*
X018096Y020103D01*
X017890Y020017D01*
X017719Y019828D02*
X016213Y019828D01*
X016023Y019670D02*
X017653Y019670D01*
X017646Y019511D02*
X015833Y019511D01*
X015642Y019353D02*
X017677Y019353D01*
X017759Y019194D02*
X015452Y019194D01*
X015446Y019036D02*
X017956Y019036D01*
X018786Y019036D02*
X022456Y019036D01*
X022259Y019194D02*
X018983Y019194D01*
X019065Y019353D02*
X022177Y019353D01*
X022146Y019511D02*
X019096Y019511D01*
X019089Y019670D02*
X022153Y019670D01*
X022219Y019828D02*
X019023Y019828D01*
X018882Y019987D02*
X022359Y019987D01*
X023532Y021096D02*
X020060Y021096D01*
X020199Y021255D02*
X021645Y021255D01*
X021428Y021413D02*
X020265Y021413D01*
X020271Y021572D02*
X021270Y021572D01*
X021111Y021730D02*
X020239Y021730D01*
X020156Y021889D02*
X020959Y021889D01*
X020920Y022047D02*
X019955Y022047D01*
X019137Y022047D02*
X015446Y022047D01*
X015393Y021889D02*
X017615Y021889D01*
X017377Y021730D02*
X014066Y021730D01*
X014066Y021572D02*
X017187Y021572D01*
X016997Y021413D02*
X014066Y021413D01*
X014066Y021255D02*
X016807Y021255D01*
X016617Y021096D02*
X014066Y021096D01*
X014066Y020938D02*
X016426Y020938D01*
X016236Y020779D02*
X014066Y020779D01*
X014066Y020621D02*
X016046Y020621D01*
X015856Y020462D02*
X014066Y020462D01*
X014066Y020304D02*
X015666Y020304D01*
X015475Y020145D02*
X014066Y020145D01*
X014066Y019987D02*
X015285Y019987D01*
X015095Y019828D02*
X014066Y019828D01*
X013350Y019828D02*
X013208Y019828D01*
X013208Y019670D02*
X013350Y019670D01*
X013350Y019511D02*
X013208Y019511D01*
X013208Y019353D02*
X013350Y019353D01*
X013350Y019194D02*
X013208Y019194D01*
X013208Y019036D02*
X013350Y019036D01*
X013350Y018877D02*
X013208Y018877D01*
X013208Y018719D02*
X013350Y018719D01*
X013350Y018560D02*
X013208Y018560D01*
X013208Y018402D02*
X013350Y018402D01*
X013350Y018243D02*
X013208Y018243D01*
X013208Y018085D02*
X013350Y018085D01*
X013350Y017926D02*
X013208Y017926D01*
X013208Y017768D02*
X013350Y017768D01*
X013350Y017609D02*
X013208Y017609D01*
X013208Y017451D02*
X013350Y017451D01*
X013350Y017292D02*
X013208Y017292D01*
X013208Y017134D02*
X013350Y017134D01*
X013350Y016975D02*
X013208Y016975D01*
X013208Y016817D02*
X013350Y016817D01*
X013350Y016658D02*
X013208Y016658D01*
X013208Y016500D02*
X013350Y016500D01*
X013350Y016341D02*
X013208Y016341D01*
X013208Y016183D02*
X013350Y016183D01*
X013350Y016024D02*
X013208Y016024D01*
X013208Y015866D02*
X013350Y015866D01*
X013350Y015707D02*
X013208Y015707D01*
X013208Y015549D02*
X013350Y015549D01*
X013350Y015390D02*
X013208Y015390D01*
X013239Y015232D02*
X013350Y015232D01*
X014066Y015232D02*
X016400Y015232D01*
X016350Y015073D02*
X014066Y015073D01*
X014066Y014915D02*
X016113Y014915D01*
X015994Y014756D02*
X014066Y014756D01*
X014066Y014598D02*
X015945Y014598D01*
X015946Y014439D02*
X014066Y014439D01*
X014066Y014281D02*
X016012Y014281D01*
X016156Y014122D02*
X014066Y014122D01*
X014066Y015390D02*
X016552Y015390D01*
X016711Y015549D02*
X014066Y015549D01*
X014066Y015707D02*
X016869Y015707D01*
X017028Y015866D02*
X014066Y015866D01*
X014066Y016024D02*
X017186Y016024D01*
X017345Y016183D02*
X014066Y016183D01*
X014066Y016341D02*
X014074Y016341D01*
X014683Y016341D02*
X014733Y016341D01*
X014733Y016500D02*
X014683Y016500D01*
X014683Y016658D02*
X014733Y016658D01*
X014733Y016817D02*
X014683Y016817D01*
X014683Y016975D02*
X014733Y016975D01*
X014733Y017065D02*
X015448Y017065D01*
X015448Y017564D01*
X015439Y017610D01*
X015421Y017654D01*
X015395Y017693D01*
X015361Y017726D01*
X015322Y017753D01*
X015278Y017771D01*
X015232Y017780D01*
X014733Y017780D01*
X014733Y017065D01*
X014733Y017134D02*
X014683Y017134D01*
X014683Y017292D02*
X014733Y017292D01*
X014733Y017451D02*
X014683Y017451D01*
X014683Y017609D02*
X014733Y017609D01*
X014733Y017768D02*
X014683Y017768D01*
X014130Y017768D02*
X014066Y017768D01*
X014066Y017926D02*
X017816Y017926D01*
X017658Y018085D02*
X014066Y018085D01*
X014066Y018243D02*
X014999Y018243D01*
X015286Y017768D02*
X017975Y017768D01*
X018133Y017609D02*
X015439Y017609D01*
X015448Y017451D02*
X018149Y017451D01*
X018009Y017292D02*
X015448Y017292D01*
X015448Y017134D02*
X017945Y017134D01*
X017945Y016975D02*
X015448Y016975D01*
X015448Y016817D02*
X017997Y016817D01*
X018120Y016658D02*
X015448Y016658D01*
X015445Y016500D02*
X018248Y016500D01*
X017503Y016341D02*
X015343Y016341D01*
X017723Y015549D02*
X018325Y015549D01*
X018992Y014756D02*
X017423Y014756D01*
X017471Y014598D02*
X018946Y014598D01*
X018943Y014532D02*
X018943Y014500D01*
X018956Y014422D01*
X018980Y014347D01*
X019016Y014277D01*
X019063Y014213D01*
X019118Y014157D01*
X019182Y014110D01*
X019253Y014074D01*
X019328Y014050D01*
X019406Y014038D01*
X019701Y014038D01*
X019701Y014532D01*
X018943Y014532D01*
X018953Y014439D02*
X017471Y014439D01*
X017405Y014281D02*
X019014Y014281D01*
X019166Y014122D02*
X017260Y014122D01*
X017949Y013805D02*
X031350Y013805D01*
X031350Y013647D02*
X018052Y013647D01*
X018066Y013488D02*
X031350Y013488D01*
X031350Y013330D02*
X018066Y013330D01*
X018066Y013171D02*
X031350Y013171D01*
X031350Y013013D02*
X018066Y013013D01*
X018066Y012854D02*
X031350Y012854D01*
X031350Y012696D02*
X018066Y012696D01*
X018158Y012537D02*
X031350Y012537D01*
X031350Y012379D02*
X018212Y012379D01*
X018212Y012220D02*
X031350Y012220D01*
X031350Y012062D02*
X018212Y012062D01*
X018212Y011903D02*
X031350Y011903D01*
X031350Y011111D02*
X028395Y011111D01*
X027022Y011111D02*
X019552Y011111D01*
X019076Y010952D02*
X026917Y010952D01*
X026851Y010794D02*
X018601Y010794D01*
X018239Y011428D02*
X018074Y011428D01*
X018175Y011586D02*
X018715Y011586D01*
X019190Y011745D02*
X018212Y011745D01*
X017259Y012537D02*
X017158Y012537D01*
X019701Y014122D02*
X019716Y014122D01*
X019701Y014281D02*
X019716Y014281D01*
X019701Y014439D02*
X019716Y014439D01*
X019701Y014598D02*
X019716Y014598D01*
X019701Y014756D02*
X019716Y014756D01*
X019701Y014915D02*
X019716Y014915D01*
X019377Y016341D02*
X022003Y016341D01*
X023178Y016975D02*
X023238Y016975D01*
X023332Y017134D02*
X023085Y017134D01*
X024247Y016817D02*
X031012Y016817D01*
X030880Y016975D02*
X024326Y016975D01*
X024405Y017134D02*
X030748Y017134D01*
X030616Y017292D02*
X024484Y017292D01*
X024561Y017451D02*
X030484Y017451D01*
X030352Y017609D02*
X024566Y017609D01*
X024566Y017768D02*
X030220Y017768D01*
X030087Y017926D02*
X024566Y017926D01*
X024566Y018085D02*
X029955Y018085D01*
X029823Y018243D02*
X024566Y018243D01*
X024566Y018402D02*
X029691Y018402D01*
X029559Y018560D02*
X024566Y018560D01*
X024566Y018719D02*
X029427Y018719D01*
X029295Y018877D02*
X024566Y018877D01*
X024566Y019036D02*
X029163Y019036D01*
X029031Y019194D02*
X024566Y019194D01*
X024566Y019353D02*
X028899Y019353D01*
X028846Y019511D02*
X024566Y019511D01*
X024566Y019670D02*
X028850Y019670D01*
X028850Y019828D02*
X024566Y019828D01*
X024566Y019987D02*
X028850Y019987D01*
X028850Y020145D02*
X024566Y020145D01*
X024566Y020304D02*
X028850Y020304D01*
X028850Y020462D02*
X024566Y020462D01*
X024566Y020621D02*
X028850Y020621D01*
X028850Y020779D02*
X028194Y020779D01*
X028212Y020786D02*
X028462Y021036D01*
X028597Y021363D01*
X028597Y021717D01*
X028462Y022044D01*
X028212Y022294D01*
X027885Y022429D01*
X027531Y022429D01*
X027205Y022294D01*
X026955Y022044D01*
X026819Y021717D01*
X026819Y021363D01*
X026955Y021036D01*
X027205Y020786D01*
X027531Y020651D01*
X027885Y020651D01*
X028212Y020786D01*
X028363Y020938D02*
X028850Y020938D01*
X028850Y021096D02*
X028487Y021096D01*
X028552Y021255D02*
X028850Y021255D01*
X028850Y021413D02*
X028597Y021413D01*
X028597Y021572D02*
X028850Y021572D01*
X028850Y021730D02*
X028592Y021730D01*
X028526Y021889D02*
X028850Y021889D01*
X028850Y022047D02*
X028459Y022047D01*
X028300Y022206D02*
X028850Y022206D01*
X028850Y022364D02*
X028042Y022364D01*
X027375Y022364D02*
X021496Y022364D01*
X021496Y022206D02*
X027117Y022206D01*
X026958Y022047D02*
X024455Y022047D01*
X024656Y021889D02*
X026890Y021889D01*
X026825Y021730D02*
X024739Y021730D01*
X024771Y021572D02*
X026819Y021572D01*
X026819Y021413D02*
X024765Y021413D01*
X024699Y021255D02*
X026864Y021255D01*
X026930Y021096D02*
X024566Y021096D01*
X024566Y020938D02*
X027053Y020938D01*
X027222Y020779D02*
X024566Y020779D01*
X023850Y020779D02*
X017354Y020779D01*
X017164Y020621D02*
X023850Y020621D01*
X023850Y020462D02*
X016974Y020462D01*
X016784Y020304D02*
X023850Y020304D01*
X023850Y020938D02*
X017544Y020938D01*
X017735Y021096D02*
X019032Y021096D01*
X020920Y022206D02*
X016836Y022206D01*
X017038Y022364D02*
X020920Y022364D01*
X020920Y022523D02*
X017197Y022523D01*
X017355Y022681D02*
X020920Y022681D01*
X020920Y022840D02*
X017514Y022840D01*
X017672Y022998D02*
X018046Y022998D01*
X018695Y022998D02*
X020920Y022998D01*
X020920Y023157D02*
X018945Y023157D01*
X019049Y023315D02*
X020920Y023315D01*
X020920Y023474D02*
X019096Y023474D01*
X019096Y023632D02*
X020920Y023632D01*
X020920Y023791D02*
X019038Y023791D01*
X018920Y023949D02*
X020892Y023949D01*
X020734Y024108D02*
X015448Y024108D01*
X015448Y024266D02*
X016617Y024266D01*
X016464Y024377D02*
X016464Y024377D01*
X016417Y024425D02*
X015448Y024425D01*
X015448Y024565D02*
X015448Y025064D01*
X015439Y025110D01*
X015421Y025154D01*
X015395Y025193D01*
X015361Y025226D01*
X015322Y025253D01*
X015278Y025271D01*
X015232Y025280D01*
X014733Y025280D01*
X014733Y024565D01*
X015448Y024565D01*
X015448Y024583D02*
X016258Y024583D01*
X016100Y024742D02*
X015448Y024742D01*
X015448Y024900D02*
X015955Y024900D01*
X015920Y025059D02*
X015448Y025059D01*
X015371Y025217D02*
X015920Y025217D01*
X015920Y025376D02*
X014066Y025376D01*
X014208Y025534D02*
X015920Y025534D01*
X015920Y025693D02*
X015805Y025693D01*
X016496Y025693D02*
X026586Y025693D01*
X026831Y025534D02*
X016496Y025534D01*
X016496Y025376D02*
X026574Y025376D01*
X026478Y025217D02*
X016496Y025217D01*
X016597Y025059D02*
X026445Y025059D01*
X026462Y024900D02*
X016755Y024900D01*
X017453Y023791D02*
X014066Y023791D01*
X014066Y023632D02*
X017294Y023632D01*
X017136Y023474D02*
X014066Y023474D01*
X014066Y023315D02*
X016977Y023315D01*
X016819Y023157D02*
X015428Y023157D01*
X015446Y022998D02*
X016660Y022998D01*
X017822Y023949D02*
X015430Y023949D01*
X014733Y023949D02*
X014683Y023949D01*
X014683Y024108D02*
X014733Y024108D01*
X014733Y024266D02*
X014683Y024266D01*
X014683Y024425D02*
X014733Y024425D01*
X014733Y024583D02*
X014683Y024583D01*
X014683Y024742D02*
X014733Y024742D01*
X014733Y024900D02*
X014683Y024900D01*
X014683Y025059D02*
X014733Y025059D01*
X014733Y025217D02*
X014683Y025217D01*
X013672Y026010D02*
X013208Y026010D01*
X013208Y026168D02*
X013830Y026168D01*
X013989Y026327D02*
X013208Y026327D01*
X013208Y026485D02*
X015350Y026485D01*
X015350Y026644D02*
X013208Y026644D01*
X013208Y026802D02*
X014546Y026802D01*
X014515Y026812D02*
X014591Y026787D01*
X014669Y026775D01*
X014701Y026775D01*
X014701Y027532D01*
X014206Y027532D01*
X014206Y027238D01*
X014218Y027160D01*
X014243Y027085D01*
X014279Y027014D01*
X014325Y026950D01*
X014381Y026894D01*
X014445Y026848D01*
X014515Y026812D01*
X014701Y026802D02*
X014716Y026802D01*
X014871Y026802D02*
X015350Y026802D01*
X015318Y026961D02*
X015099Y026961D01*
X015185Y027119D02*
X015232Y027119D01*
X014716Y027119D02*
X014701Y027119D01*
X014701Y026961D02*
X014716Y026961D01*
X014701Y027278D02*
X014716Y027278D01*
X014701Y027436D02*
X014716Y027436D01*
X014369Y027912D02*
X013208Y027912D01*
X013208Y028070D02*
X014535Y028070D01*
X014312Y028229D02*
X013208Y028229D01*
X013208Y028387D02*
X014230Y028387D01*
X014208Y028546D02*
X013208Y028546D01*
X013448Y028704D02*
X014208Y028704D01*
X014208Y028863D02*
X013753Y028863D01*
X013911Y029021D02*
X014257Y029021D01*
X014378Y029180D02*
X013994Y029180D01*
X014060Y029338D02*
X017420Y029338D01*
X017420Y029497D02*
X014072Y029497D01*
X014072Y029655D02*
X017420Y029655D01*
X017420Y029814D02*
X014030Y029814D01*
X013965Y029972D02*
X017420Y029972D01*
X017434Y030131D02*
X013935Y030131D01*
X014041Y030289D02*
X017557Y030289D01*
X017378Y029180D02*
X017039Y029180D01*
X017159Y029021D02*
X017257Y029021D01*
X016378Y029180D02*
X016039Y029180D01*
X016159Y029021D02*
X016257Y029021D01*
X015378Y029180D02*
X015039Y029180D01*
X015159Y029021D02*
X015257Y029021D01*
X014253Y027753D02*
X013208Y027753D01*
X013208Y027595D02*
X014208Y027595D01*
X014206Y027436D02*
X013208Y027436D01*
X013208Y027278D02*
X014206Y027278D01*
X014231Y027119D02*
X013208Y027119D01*
X013208Y026961D02*
X014317Y026961D01*
X013513Y025851D02*
X013208Y025851D01*
X013208Y025693D02*
X013384Y025693D01*
X013350Y025534D02*
X013208Y025534D01*
X013208Y025376D02*
X013350Y025376D01*
X013350Y025217D02*
X013208Y025217D01*
X013208Y025059D02*
X013350Y025059D01*
X013350Y024900D02*
X013208Y024900D01*
X013208Y024742D02*
X013350Y024742D01*
X013350Y024583D02*
X013208Y024583D01*
X013208Y024425D02*
X013350Y024425D01*
X013350Y024266D02*
X013208Y024266D01*
X013208Y024108D02*
X013350Y024108D01*
X013350Y023949D02*
X013208Y023949D01*
X013208Y023791D02*
X013350Y023791D01*
X013350Y023632D02*
X013208Y023632D01*
X013208Y023474D02*
X013350Y023474D01*
X013350Y023315D02*
X013208Y023315D01*
X013208Y023157D02*
X013350Y023157D01*
X013350Y022998D02*
X013208Y022998D01*
X013208Y022840D02*
X013350Y022840D01*
X013350Y022681D02*
X013208Y022681D01*
X013208Y022523D02*
X013350Y022523D01*
X013350Y022364D02*
X013208Y022364D01*
X013208Y022206D02*
X013350Y022206D01*
X013350Y022047D02*
X013208Y022047D01*
X013208Y021889D02*
X013350Y021889D01*
X013350Y021730D02*
X013208Y021730D01*
X013208Y021572D02*
X013350Y021572D01*
X013350Y021413D02*
X013208Y021413D01*
X013208Y021255D02*
X013350Y021255D01*
X013350Y021096D02*
X013208Y021096D01*
X013208Y020938D02*
X013350Y020938D01*
X013350Y020779D02*
X013208Y020779D01*
X013208Y020621D02*
X013350Y020621D01*
X013350Y020462D02*
X013208Y020462D01*
X013208Y020304D02*
X013350Y020304D01*
X013350Y020145D02*
X013208Y020145D01*
X013208Y019987D02*
X013350Y019987D01*
X020914Y024742D02*
X026537Y024742D01*
X026741Y024583D02*
X021072Y024583D01*
X021231Y024425D02*
X028850Y024425D01*
X028850Y024583D02*
X027675Y024583D01*
X027880Y024742D02*
X028850Y024742D01*
X028850Y024900D02*
X027975Y024900D01*
X028134Y025059D02*
X028850Y025059D01*
X028850Y025217D02*
X028292Y025217D01*
X028451Y025376D02*
X028850Y025376D01*
X028850Y025534D02*
X028496Y025534D01*
X028496Y025693D02*
X028850Y025693D01*
X028850Y025851D02*
X028496Y025851D01*
X028496Y026010D02*
X028850Y026010D01*
X028850Y026168D02*
X028496Y026168D01*
X028496Y026327D02*
X028850Y026327D01*
X028850Y026485D02*
X028496Y026485D01*
X028477Y026644D02*
X028850Y026644D01*
X028850Y026802D02*
X028328Y026802D01*
X027967Y026961D02*
X028850Y026961D01*
X028850Y027119D02*
X027967Y027119D01*
X027914Y027278D02*
X028850Y027278D01*
X028850Y027436D02*
X027781Y027436D01*
X027703Y027595D02*
X028850Y027595D01*
X027201Y027048D02*
X027201Y027032D01*
X026443Y027032D01*
X026443Y027000D01*
X026456Y026922D01*
X026480Y026847D01*
X026490Y026828D01*
X018930Y026828D01*
X018992Y026853D01*
X019133Y026994D01*
X019209Y027178D01*
X019209Y027640D01*
X019133Y027823D01*
X018992Y027964D01*
X018809Y028040D01*
X018863Y028063D01*
X019496Y027746D01*
X019506Y027737D01*
X019560Y027714D01*
X019612Y027688D01*
X019625Y027687D01*
X019637Y027682D01*
X019696Y027682D01*
X019754Y027678D01*
X019766Y027682D01*
X026596Y027682D01*
X026662Y027616D01*
X026846Y027540D01*
X026888Y027540D01*
X026828Y027530D01*
X026753Y027506D01*
X026682Y027470D01*
X026618Y027423D01*
X026563Y027367D01*
X026516Y027303D01*
X026480Y027233D01*
X026456Y027158D01*
X026443Y027080D01*
X026443Y027048D01*
X027201Y027048D01*
X026636Y027436D02*
X019209Y027436D01*
X019209Y027278D02*
X026503Y027278D01*
X026450Y027119D02*
X019184Y027119D01*
X019099Y026961D02*
X026450Y026961D01*
X026714Y027595D02*
X019209Y027595D01*
X019162Y027753D02*
X019482Y027753D01*
X019165Y027912D02*
X019044Y027912D01*
X021371Y024284D02*
X021371Y024284D01*
X021389Y024266D02*
X028850Y024266D01*
X028850Y024108D02*
X021492Y024108D01*
X021496Y023949D02*
X022322Y023949D01*
X022203Y023791D02*
X021496Y023791D01*
X021496Y023632D02*
X022146Y023632D01*
X022146Y023474D02*
X021496Y023474D01*
X021496Y023315D02*
X022192Y023315D01*
X022296Y023157D02*
X021496Y023157D01*
X021496Y022998D02*
X022546Y022998D01*
X023195Y022998D02*
X028850Y022998D01*
X028850Y022840D02*
X021496Y022840D01*
X021496Y022681D02*
X028850Y022681D01*
X028850Y022523D02*
X021496Y022523D01*
X021608Y022047D02*
X023637Y022047D01*
X023436Y021889D02*
X021767Y021889D01*
X023445Y023157D02*
X028850Y023157D01*
X028850Y023949D02*
X023420Y023949D01*
X030996Y023949D02*
X034708Y023949D01*
X034708Y023791D02*
X030996Y023791D01*
X030996Y023632D02*
X034708Y023632D01*
X034708Y023474D02*
X030996Y023474D01*
X030996Y023315D02*
X034708Y023315D01*
X034708Y023157D02*
X030996Y023157D01*
X030996Y022998D02*
X034708Y022998D01*
X034708Y022840D02*
X030996Y022840D01*
X030996Y022681D02*
X034708Y022681D01*
X034708Y022523D02*
X030996Y022523D01*
X030996Y022364D02*
X034708Y022364D01*
X034708Y022206D02*
X030996Y022206D01*
X030996Y022047D02*
X034708Y022047D01*
X034708Y021889D02*
X030996Y021889D01*
X030996Y021730D02*
X034708Y021730D01*
X034708Y021572D02*
X030996Y021572D01*
X030996Y021413D02*
X034708Y021413D01*
X034708Y021255D02*
X030996Y021255D01*
X031026Y021096D02*
X034708Y021096D01*
X034708Y020938D02*
X031145Y020938D01*
X031264Y020779D02*
X034708Y020779D01*
X034708Y020621D02*
X031383Y020621D01*
X031502Y020462D02*
X034708Y020462D01*
X034708Y020304D02*
X031621Y020304D01*
X031739Y020145D02*
X034708Y020145D01*
X034708Y019987D02*
X031858Y019987D01*
X031977Y019828D02*
X034708Y019828D01*
X034708Y019670D02*
X032096Y019670D01*
X032215Y019511D02*
X034708Y019511D01*
X034708Y019353D02*
X032334Y019353D01*
X032453Y019194D02*
X034708Y019194D01*
X034708Y019036D02*
X032572Y019036D01*
X032690Y018877D02*
X034708Y018877D01*
X034708Y018719D02*
X032809Y018719D01*
X032928Y018560D02*
X034708Y018560D01*
X034708Y018402D02*
X033047Y018402D01*
X033166Y018243D02*
X034708Y018243D01*
X034708Y018085D02*
X033285Y018085D01*
X033404Y017926D02*
X034708Y017926D01*
X034708Y017768D02*
X033523Y017768D01*
X033641Y017609D02*
X034708Y017609D01*
X034708Y017451D02*
X033760Y017451D01*
X033879Y017292D02*
X034708Y017292D01*
X034708Y017134D02*
X033982Y017134D01*
X033996Y016975D02*
X034708Y016975D01*
X034708Y016817D02*
X033996Y016817D01*
X033996Y016658D02*
X034708Y016658D01*
X034708Y016500D02*
X033996Y016500D01*
X033996Y016341D02*
X034708Y016341D01*
X034708Y016183D02*
X033996Y016183D01*
X033996Y016024D02*
X034708Y016024D01*
X034708Y015866D02*
X033996Y015866D01*
X033996Y015707D02*
X034708Y015707D01*
X034708Y015549D02*
X033996Y015549D01*
X033996Y015390D02*
X034708Y015390D01*
X034708Y015232D02*
X033996Y015232D01*
X033996Y015073D02*
X034708Y015073D01*
X034708Y014915D02*
X033996Y014915D01*
X033996Y014756D02*
X034708Y014756D01*
X034708Y014598D02*
X033996Y014598D01*
X033996Y014439D02*
X034708Y014439D01*
X034708Y014281D02*
X033996Y014281D01*
X033996Y014122D02*
X034708Y014122D01*
X034708Y013964D02*
X033996Y013964D01*
X033996Y013805D02*
X034708Y013805D01*
X034708Y013647D02*
X033996Y013647D01*
X033996Y013488D02*
X034708Y013488D01*
X034708Y013330D02*
X033996Y013330D01*
X033996Y013171D02*
X034708Y013171D01*
X034708Y013013D02*
X033996Y013013D01*
X033996Y012854D02*
X034708Y012854D01*
X034708Y012696D02*
X033996Y012696D01*
X033996Y012537D02*
X034708Y012537D01*
X034708Y012379D02*
X033996Y012379D01*
X033996Y012220D02*
X034708Y012220D01*
X034708Y012062D02*
X033996Y012062D01*
X033996Y011903D02*
X034708Y011903D01*
X034708Y011745D02*
X033996Y011745D01*
X033996Y011586D02*
X034708Y011586D01*
X034708Y011428D02*
X033996Y011428D01*
X033996Y011269D02*
X034708Y011269D01*
X034708Y011111D02*
X033996Y011111D01*
X033996Y010952D02*
X034708Y010952D01*
X034708Y010794D02*
X033996Y010794D01*
X034083Y010635D02*
X034708Y010635D01*
X034708Y010477D02*
X034178Y010477D01*
X034209Y010318D02*
X034708Y010318D01*
X034708Y010160D02*
X034209Y010160D01*
X034209Y010001D02*
X034708Y010001D01*
X034708Y009843D02*
X034209Y009843D01*
X034209Y009684D02*
X034708Y009684D01*
X034694Y009526D02*
X034146Y009526D01*
X034005Y009367D02*
X034535Y009367D01*
X034377Y009209D02*
X014040Y009209D01*
X013881Y009367D02*
X030418Y009367D01*
X030273Y009526D02*
X013723Y009526D01*
X014198Y009050D02*
X034218Y009050D01*
X033411Y009367D02*
X033005Y009367D01*
X033146Y009526D02*
X033271Y009526D01*
X032411Y009367D02*
X032005Y009367D01*
X032146Y009526D02*
X032271Y009526D01*
X031239Y010477D02*
X031180Y010477D01*
X031086Y010635D02*
X031333Y010635D01*
X031350Y015866D02*
X024004Y015866D01*
X024145Y016024D02*
X031350Y016024D01*
X031350Y016183D02*
X024209Y016183D01*
X024209Y016341D02*
X031350Y016341D01*
X031276Y016500D02*
X024209Y016500D01*
X024209Y016658D02*
X031144Y016658D01*
X024716Y014915D02*
X024701Y014915D01*
X024701Y014756D02*
X024716Y014756D01*
X024701Y014598D02*
X024716Y014598D01*
X024701Y014439D02*
X024716Y014439D01*
X024701Y014281D02*
X024716Y014281D01*
X024701Y014122D02*
X024716Y014122D01*
X030996Y024108D02*
X034708Y024108D01*
X034708Y024266D02*
X030996Y024266D01*
X030996Y024425D02*
X033491Y024425D01*
X033138Y024553D02*
X033138Y024553D01*
X033102Y024583D02*
X030996Y024583D01*
X030996Y024742D02*
X032913Y024742D01*
X032781Y024900D02*
X030996Y024900D01*
X030996Y025059D02*
X032690Y025059D01*
X032625Y025217D02*
X030996Y025217D01*
X030996Y025376D02*
X032597Y025376D01*
X032569Y025534D02*
X030996Y025534D01*
X030996Y025693D02*
X032595Y025693D01*
X032623Y025851D02*
X030996Y025851D01*
X030996Y026010D02*
X032683Y026010D01*
X032775Y026168D02*
X030996Y026168D01*
X030996Y026327D02*
X032899Y026327D01*
X033088Y026485D02*
X030996Y026485D01*
X030996Y026644D02*
X033458Y026644D01*
X033138Y026527D02*
X033138Y026527D01*
X033959Y026644D02*
X034708Y026644D01*
X034708Y026802D02*
X030996Y026802D01*
X030996Y026961D02*
X034708Y026961D01*
X034708Y027119D02*
X030996Y027119D01*
X030996Y027278D02*
X034708Y027278D01*
X034708Y027436D02*
X030996Y027436D01*
X030996Y027595D02*
X034708Y027595D01*
X034708Y027753D02*
X030996Y027753D01*
X030996Y027912D02*
X034708Y027912D01*
X034708Y028070D02*
X030996Y028070D01*
X030996Y028229D02*
X034708Y028229D01*
X034708Y028387D02*
X030996Y028387D01*
X030996Y028546D02*
X034708Y028546D01*
X034708Y028704D02*
X030996Y028704D01*
X030996Y028863D02*
X034708Y028863D01*
X034708Y029021D02*
X030996Y029021D01*
X030996Y029180D02*
X034708Y029180D01*
X034708Y029338D02*
X030996Y029338D01*
X030996Y029497D02*
X034708Y029497D01*
X034708Y029655D02*
X030996Y029655D01*
X030996Y029814D02*
X034708Y029814D01*
X034708Y029972D02*
X030996Y029972D01*
X030982Y030131D02*
X034618Y030131D01*
X034459Y030289D02*
X030859Y030289D01*
X034301Y030448D02*
X014147Y030448D01*
X033926Y024425D02*
X034708Y024425D01*
X034708Y024583D02*
X034314Y024583D01*
X034503Y024742D02*
X034708Y024742D01*
X034708Y024900D02*
X034635Y024900D01*
X034642Y026168D02*
X034708Y026168D01*
X034708Y026327D02*
X034518Y026327D01*
X034329Y026485D02*
X034708Y026485D01*
X034278Y026527D02*
X034278Y026527D01*
D17*
X030708Y030040D02*
X030708Y021040D01*
X033708Y017040D01*
X033708Y010040D01*
X032708Y010040D02*
X032708Y016540D01*
X029708Y020040D01*
X029708Y029540D01*
X018708Y029540D01*
X018208Y029040D01*
X018208Y028040D01*
X017208Y028040D01*
X016708Y028540D01*
X016208Y028040D02*
X016208Y025040D01*
X016708Y024540D01*
X020708Y024540D01*
X021208Y024040D01*
X021208Y022040D01*
X021708Y021540D01*
X024208Y021540D01*
X027208Y025040D02*
X027708Y025040D01*
X028208Y025540D01*
X028208Y026540D01*
X017708Y026540D01*
X017708Y027540D01*
X016708Y027540D02*
X016708Y026040D01*
X027208Y026040D01*
X030708Y030040D02*
X017708Y030040D01*
X017708Y028540D01*
X016208Y028040D02*
X015708Y028540D01*
M02*
